<svg width="20" height="24" viewBox="0 0 20 24" fill="none" xmlns="http://www.w3.org/2000/svg">
<path d="M18.415 9.71489C18.415 16.4816 9.71501 22.2816 9.71501 22.2816C9.71501 22.2816 1.01501 16.4816 1.01501 9.71489C1.01501 7.40751 1.93162 5.19463 3.56319 3.56306C5.19475 1.9315 7.40763 1.01489 9.71501 1.01489C12.0224 1.01489 14.2353 1.9315 15.8668 3.56306C17.4984 5.19463 18.415 7.40751 18.415 9.71489Z" stroke="#FF9500" stroke-width="2.03" stroke-linecap="round" stroke-linejoin="round"/>
<path d="M9.71506 12.6147C11.3167 12.6147 12.6151 11.3163 12.6151 9.7147C12.6151 8.11307 11.3167 6.8147 9.71506 6.8147C8.11344 6.8147 6.81506 8.11307 6.81506 9.7147C6.81506 11.3163 8.11344 12.6147 9.71506 12.6147Z" stroke="#FF9500" stroke-width="2.03" stroke-linecap="round" stroke-linejoin="round"/>
</svg>
