<svg id="Capa_1" enable-background="new 0 0 512 512" height="512" viewBox="0 0 512 512" width="512" xmlns="http://www.w3.org/2000/svg"><g><path fill="#f0a61f" d="m137.35 0c-26.263 0-47.63 21.366-47.63 47.63v3.791c-24.075 4.673-41.9 26.46-41.9 50.939v51c0 45.11 36.7 81.81 81.81 81.81h104.24c11.116 0 20.16 9.044 20.16 20.16v10.946h-2.989c-18.311 0-33.208 14.897-33.208 33.208 0 14.271 9.05 26.467 21.712 31.154l-11.685 117.086c-3.06 34.017 24.609 64.276 58.751 64.276 34.27 0 61.703-30.258 58.748-64.298l-10.828-117.401c12.21-4.912 20.857-16.87 20.857-30.816 0-18.311-14.897-33.208-33.208-33.208h-3.529v-9.236c0-45.11-36.7-81.81-81.811-81.81h-106.96c-11.116 0-20.16-9.044-20.16-20.16v-15.4c7.799 5.575 17.334 8.87 27.63 8.87h49.562c5.523 0 10-4.478 10-10s-4.477-10-10-10h-49.562c-15.235 0-27.63-12.395-27.63-27.63v-53.281c0-15.235 12.395-27.63 27.63-27.63h135.3v27.38c0 20.362 16.882 37.465 37.222 37.746 10.919 1.128 17.142 7.335 18.278 18.247v25.167h-53.258c-5.522 0-10 4.478-10 10s4.478 10 10 10h53.258v8.12c0 21.764 17.71 39.47 39.479 39.47 21.764 0 39.47-17.706 39.47-39.47v-8.12h9.45c26.264 0 47.63-21.366 47.63-47.63v-53.28c.001-26.264-21.365-47.63-47.629-47.63zm149.261 492c-22.527 0-40.862-19.9-38.84-42.387l11.669-116.921h55.227l10.771 116.79c1.948 22.514-16.144 42.518-38.827 42.518zm48.777-192.516c0 7.211-5.811 13.082-12.995 13.197-.071.001-.141.008-.213.008h-71.164c-.016-.001-.032 0-.048-.001-7.248-.041-13.134-5.946-13.134-13.204 0-7.283 5.925-13.208 13.208-13.208h71.138c7.283 0 13.208 5.925 13.208 13.208zm-205.508-104.254h106.96c34.082 0 61.811 27.728 61.811 61.81v9.236h-24.62v-10.946c0-22.145-18.016-40.16-40.16-40.16h-104.241c-34.082 0-61.81-27.728-61.81-61.81v-51c0-13.6 8.957-26.057 21.9-30.311v28.86 54.16c0 22.146 18.016 40.161 40.16 40.161zm314.3-94.32c0 15.235-12.395 27.63-27.63 27.63h-9.45v-37.47c0-15.495 12.605-28.101 28.101-28.101h8.979zm-.394-57.94h-8.586c-26.522 0-48.101 21.578-48.101 48.101v65.59c0 10.554-8.916 19.47-19.47 19.47-10.741 0-19.479-8.734-19.479-19.47v-53.78c0-20.373-17.377-37.75-37.75-37.75-9.787 0-17.75-7.963-17.75-17.75v-27.381h123.9c13.647 0 25.015 9.946 27.236 22.97z"/><path d="m240.36 132.99c-3.044-4.529-9.326-5.787-13.87-2.761-4.541 3.024-5.767 9.327-2.76 13.86 3.02 4.552 9.329 5.767 13.86 2.76 4.539-3.012 5.787-9.331 2.77-13.859z" fill="#f0a61f"/></g></svg>
